# This file uses centimeters as units for non-parametric coordinates.

mtllib ENVBase_ExportsOBJ.mtl
g default
v -50.000000 0.000000 50.000000
v -37.500000 0.000000 50.000000
v -25.000000 0.000000 50.000000
v -12.500000 0.000000 50.000000
v 0.000000 0.000000 50.000000
v 12.500000 0.000000 50.000000
v 25.000000 0.000000 50.000000
v 37.500000 0.000000 50.000000
v 50.000000 0.000000 50.000000
v -50.000000 0.000000 37.500000
v -37.500000 0.000000 37.500000
v -25.000000 0.000000 37.500000
v -12.500000 0.000000 37.500000
v 0.000000 0.000000 37.500000
v 12.500000 0.000000 37.500000
v 25.000000 0.000000 37.500000
v 37.500000 0.000000 37.500000
v 50.000000 0.000000 37.500000
v -50.000000 0.000000 25.000000
v -37.500000 0.000000 25.000000
v -25.000000 0.000000 25.000000
v -12.500000 0.000000 25.000000
v 0.000000 0.000000 25.000000
v 12.500000 0.000000 25.000000
v 25.000000 0.000000 25.000000
v 37.500000 0.000000 25.000000
v 50.000000 0.000000 25.000000
v -50.000000 0.000000 12.500000
v -37.500000 0.000000 12.500000
v -25.000000 0.000000 12.500000
v -12.500000 0.000000 12.500000
v 0.000000 0.000000 12.500000
v 12.500000 0.000000 12.500000
v 25.000000 0.000000 12.500000
v 37.500000 0.000000 12.500000
v 50.000000 0.000000 12.500000
v -50.000000 0.000000 0.000000
v -37.500000 0.000000 0.000000
v -25.000000 0.000000 0.000000
v -12.500000 0.000000 0.000000
v 0.000000 0.000000 0.000000
v 12.500000 0.000000 0.000000
v 25.000000 0.000000 0.000000
v 37.500000 0.000000 0.000000
v 50.000000 0.000000 0.000000
v -50.000000 0.000000 -12.500000
v -37.500000 0.000000 -12.500000
v -25.000000 0.000000 -12.500000
v -12.500000 0.000000 -12.500000
v 0.000000 0.000000 -12.500000
v 12.500000 0.000000 -12.500000
v 25.000000 0.000000 -12.500000
v 37.500000 0.000000 -12.500000
v 50.000000 0.000000 -12.500000
v -50.000000 0.000000 -25.000000
v -37.500000 0.000000 -25.000000
v -25.000000 0.000000 -25.000000
v -12.500000 0.000000 -25.000000
v 0.000000 0.000000 -25.000000
v 12.500000 0.000000 -25.000000
v 25.000000 0.000000 -25.000000
v 37.500000 0.000000 -25.000000
v 50.000000 0.000000 -25.000000
v -50.000000 0.000000 -37.500000
v -37.500000 0.000000 -37.500000
v -25.000000 0.000000 -37.500000
v -12.500000 0.000000 -37.500000
v 0.000000 0.000000 -37.500000
v 12.500000 0.000000 -37.500000
v 25.000000 0.000000 -37.500000
v 37.500000 0.000000 -37.500000
v 50.000000 0.000000 -37.500000
v -50.000000 0.000000 -50.000000
v -37.500000 0.000000 -50.000000
v -25.000000 0.000000 -50.000000
v -12.500000 0.000000 -50.000000
v 0.000000 0.000000 -50.000000
v 12.500000 0.000000 -50.000000
v 25.000000 0.000000 -50.000000
v 37.500000 0.000000 -50.000000
v 50.000000 0.000000 -50.000000
vt 0.003906 0.003906
vt 0.121094 0.003906
vt 0.253906 -0.003906
vt 0.371094 -0.003906
vt 0.500000 0.000000
vt 0.625000 0.000000
vt 0.750000 0.000000
vt 0.875000 0.000000
vt 1.000000 0.000000
vt 0.000000 0.125000
vt 0.125000 0.125000
vt 0.250000 0.125000
vt 0.375000 0.125000
vt 0.500000 0.125000
vt 0.625000 0.125000
vt 0.750000 0.125000
vt 0.875000 0.125000
vt 1.000000 0.125000
vt 0.000000 0.250000
vt 0.125000 0.250000
vt 0.250000 0.250000
vt 0.375000 0.250000
vt 0.500000 0.250000
vt 0.625000 0.250000
vt 0.750000 0.250000
vt 0.875000 0.250000
vt 1.000000 0.250000
vt 0.000000 0.375000
vt 0.125000 0.375000
vt 0.250000 0.375000
vt 0.375000 0.375000
vt 0.500000 0.375000
vt 0.625000 0.375000
vt 0.750000 0.375000
vt 0.875000 0.375000
vt 1.000000 0.375000
vt 0.000000 0.500000
vt 0.125000 0.500000
vt 0.250000 0.500000
vt 0.375000 0.500000
vt 0.500000 0.500000
vt 0.625000 0.500000
vt 0.750000 0.500000
vt 0.875000 0.500000
vt 1.000000 0.500000
vt 0.000000 0.625000
vt 0.125000 0.625000
vt 0.250000 0.625000
vt 0.375000 0.625000
vt 0.500000 0.625000
vt 0.625000 0.625000
vt 0.750000 0.625000
vt 0.875000 0.625000
vt 1.000000 0.625000
vt 0.000000 0.750000
vt 0.125000 0.750000
vt 0.250000 0.750000
vt 0.375000 0.750000
vt 0.500000 0.750000
vt 0.625000 0.750000
vt 0.750000 0.750000
vt 0.875000 0.750000
vt 1.000000 0.750000
vt 0.000000 0.875000
vt 0.125000 0.875000
vt 0.250000 0.875000
vt 0.375000 0.875000
vt 0.500000 0.875000
vt 0.625000 0.875000
vt 0.750000 0.875000
vt 0.875000 0.875000
vt 1.000000 0.875000
vt 0.000000 1.000000
vt 0.125000 1.000000
vt 0.250000 1.000000
vt 0.375000 1.000000
vt 0.500000 1.000000
vt 0.625000 1.000000
vt 0.750000 1.000000
vt 0.875000 1.000000
vt 1.000000 1.000000
vn 0.000000 1.000000 0.000000
vn 0.000000 1.000000 0.000000
vn 0.000000 1.000000 0.000000
vn 0.000000 1.000000 0.000000
vn 0.000000 1.000000 0.000000
vn 0.000000 1.000000 0.000000
vn 0.000000 1.000000 0.000000
vn 0.000000 1.000000 0.000000
vn 0.000000 1.000000 0.000000
vn 0.000000 1.000000 0.000000
vn 0.000000 1.000000 0.000000
vn 0.000000 1.000000 0.000000
vn 0.000000 1.000000 0.000000
vn 0.000000 1.000000 0.000000
vn 0.000000 1.000000 0.000000
vn 0.000000 1.000000 0.000000
vn 0.000000 1.000000 0.000000
vn 0.000000 1.000000 0.000000
vn 0.000000 1.000000 0.000000
vn 0.000000 1.000000 0.000000
vn 0.000000 1.000000 0.000000
vn 0.000000 1.000000 0.000000
vn 0.000000 1.000000 0.000000
vn 0.000000 1.000000 0.000000
vn 0.000000 1.000000 0.000000
vn 0.000000 1.000000 0.000000
vn 0.000000 1.000000 0.000000
vn 0.000000 1.000000 0.000000
vn 0.000000 1.000000 0.000000
vn 0.000000 1.000000 0.000000
vn 0.000000 1.000000 0.000000
vn 0.000000 1.000000 0.000000
vn 0.000000 1.000000 0.000000
vn 0.000000 1.000000 0.000000
vn 0.000000 1.000000 0.000000
vn 0.000000 1.000000 0.000000
vn 0.000000 1.000000 0.000000
vn 0.000000 1.000000 0.000000
vn 0.000000 1.000000 0.000000
vn 0.000000 1.000000 0.000000
vn 0.000000 1.000000 0.000000
vn 0.000000 1.000000 0.000000
vn 0.000000 1.000000 0.000000
vn 0.000000 1.000000 0.000000
vn 0.000000 1.000000 0.000000
vn 0.000000 1.000000 0.000000
vn 0.000000 1.000000 0.000000
vn 0.000000 1.000000 0.000000
vn 0.000000 1.000000 0.000000
vn 0.000000 1.000000 0.000000
vn 0.000000 1.000000 0.000000
vn 0.000000 1.000000 0.000000
vn 0.000000 1.000000 0.000000
vn 0.000000 1.000000 0.000000
vn 0.000000 1.000000 0.000000
vn 0.000000 1.000000 0.000000
vn 0.000000 1.000000 0.000000
vn 0.000000 1.000000 0.000000
vn 0.000000 1.000000 0.000000
vn 0.000000 1.000000 0.000000
vn 0.000000 1.000000 0.000000
vn 0.000000 1.000000 0.000000
vn 0.000000 1.000000 0.000000
vn 0.000000 1.000000 0.000000
vn 0.000000 1.000000 0.000000
vn 0.000000 1.000000 0.000000
vn 0.000000 1.000000 0.000000
vn 0.000000 1.000000 0.000000
vn 0.000000 1.000000 0.000000
vn 0.000000 1.000000 0.000000
vn 0.000000 1.000000 0.000000
vn 0.000000 1.000000 0.000000
vn 0.000000 1.000000 0.000000
vn 0.000000 1.000000 0.000000
vn 0.000000 1.000000 0.000000
vn 0.000000 1.000000 0.000000
vn 0.000000 1.000000 0.000000
vn 0.000000 1.000000 0.000000
vn 0.000000 1.000000 0.000000
vn 0.000000 1.000000 0.000000
vn 0.000000 1.000000 0.000000
s 1
g Plane_GEO_Sub ENV_GEO
usemtl initialShadingGroup
f 1/1/1 2/2/2 11/11/3 10/10/4
f 2/2/2 3/3/5 12/12/6 11/11/3
f 3/3/5 4/4/7 13/13/8 12/12/6
f 4/4/7 5/5/9 14/14/10 13/13/8
f 5/5/9 6/6/11 15/15/12 14/14/10
f 6/6/11 7/7/13 16/16/14 15/15/12
f 7/7/13 8/8/15 17/17/16 16/16/14
f 8/8/15 9/9/17 18/18/18 17/17/16
f 10/10/4 11/11/3 20/20/19 19/19/20
f 11/11/3 12/12/6 21/21/21 20/20/19
f 12/12/6 13/13/8 22/22/22 21/21/21
f 13/13/8 14/14/10 23/23/23 22/22/22
f 14/14/10 15/15/12 24/24/24 23/23/23
f 15/15/12 16/16/14 25/25/25 24/24/24
f 16/16/14 17/17/16 26/26/26 25/25/25
f 17/17/16 18/18/18 27/27/27 26/26/26
f 19/19/20 20/20/19 29/29/28 28/28/29
f 20/20/19 21/21/21 30/30/30 29/29/28
f 21/21/21 22/22/22 31/31/31 30/30/30
f 22/22/22 23/23/23 32/32/32 31/31/31
f 23/23/23 24/24/24 33/33/33 32/32/32
f 24/24/24 25/25/25 34/34/34 33/33/33
f 25/25/25 26/26/26 35/35/35 34/34/34
f 26/26/26 27/27/27 36/36/36 35/35/35
f 28/28/29 29/29/28 38/38/37 37/37/38
f 29/29/28 30/30/30 39/39/39 38/38/37
f 30/30/30 31/31/31 40/40/40 39/39/39
f 31/31/31 32/32/32 41/41/41 40/40/40
f 32/32/32 33/33/33 42/42/42 41/41/41
f 33/33/33 34/34/34 43/43/43 42/42/42
f 34/34/34 35/35/35 44/44/44 43/43/43
f 35/35/35 36/36/36 45/45/45 44/44/44
f 37/37/38 38/38/37 47/47/46 46/46/47
f 38/38/37 39/39/39 48/48/48 47/47/46
f 39/39/39 40/40/40 49/49/49 48/48/48
f 40/40/40 41/41/41 50/50/50 49/49/49
f 41/41/41 42/42/42 51/51/51 50/50/50
f 42/42/42 43/43/43 52/52/52 51/51/51
f 43/43/43 44/44/44 53/53/53 52/52/52
f 44/44/44 45/45/45 54/54/54 53/53/53
f 46/46/47 47/47/46 56/56/55 55/55/56
f 47/47/46 48/48/48 57/57/57 56/56/55
f 48/48/48 49/49/49 58/58/58 57/57/57
f 49/49/49 50/50/50 59/59/59 58/58/58
f 50/50/50 51/51/51 60/60/60 59/59/59
f 51/51/51 52/52/52 61/61/61 60/60/60
f 52/52/52 53/53/53 62/62/62 61/61/61
f 53/53/53 54/54/54 63/63/63 62/62/62
f 55/55/56 56/56/55 65/65/64 64/64/65
f 56/56/55 57/57/57 66/66/66 65/65/64
f 57/57/57 58/58/58 67/67/67 66/66/66
f 58/58/58 59/59/59 68/68/68 67/67/67
f 59/59/59 60/60/60 69/69/69 68/68/68
f 60/60/60 61/61/61 70/70/70 69/69/69
f 61/61/61 62/62/62 71/71/71 70/70/70
f 62/62/62 63/63/63 72/72/72 71/71/71
f 64/64/65 65/65/64 74/74/73 73/73/74
f 65/65/64 66/66/66 75/75/75 74/74/73
f 66/66/66 67/67/67 76/76/76 75/75/75
f 67/67/67 68/68/68 77/77/77 76/76/76
f 68/68/68 69/69/69 78/78/78 77/77/77
f 69/69/69 70/70/70 79/79/79 78/78/78
f 70/70/70 71/71/71 80/80/80 79/79/79
f 71/71/71 72/72/72 81/81/81 80/80/80
g default
v -50.000000 0.000000 50.000000
v 50.000000 0.000000 50.000000
v -50.000000 0.000000 -50.000000
v 50.000000 0.000000 -50.000000
vt 0.003906 0.003906
vt 0.996094 0.003906
vt 0.003906 0.996094
vt 0.996094 0.996094
vn 0.000000 1.000000 0.000000
vn 0.000000 1.000000 0.000000
vn 0.000000 1.000000 0.000000
vn 0.000000 1.000000 0.000000
s off
g ENV_GEO Plane_GEO_NoSub
usemtl initialShadingGroup
f 82/82/82 83/83/83 85/85/84 84/84/85
g default
v 50.000000 0.000000 50.000000
v 37.500000 0.000000 37.500000
v 50.000000 0.000000 37.500000
v 25.000000 0.000000 25.000000
v 37.500000 0.000000 25.000000
v 50.000000 0.000000 25.000000
v 12.500000 0.000000 12.500000
v 25.000000 0.000000 12.500000
v 37.500000 0.000000 12.500000
v 50.000000 0.000000 12.500000
v 0.000000 0.000000 0.000000
v 12.500000 0.000000 0.000000
v 25.000000 0.000000 0.000000
v 37.500000 0.000000 0.000000
v 50.000000 0.000000 0.000000
v -12.500000 0.000000 -12.500000
v 0.000000 0.000000 -12.500000
v 12.500000 0.000000 -12.500000
v 25.000000 0.000000 -12.500000
v 37.500000 0.000000 -12.500000
v 50.000000 0.000000 -12.500000
v -25.000000 0.000000 -25.000000
v -12.500000 0.000000 -25.000000
v 0.000000 0.000000 -25.000000
v 12.500000 0.000000 -25.000000
v 25.000000 0.000000 -25.000000
v 37.500000 0.000000 -25.000000
v 50.000000 0.000000 -25.000000
v -37.500000 0.000000 -37.500000
v -25.000000 0.000000 -37.500000
v -12.500000 0.000000 -37.500000
v 0.000000 0.000000 -37.500000
v 12.500000 0.000000 -37.500000
v 25.000000 0.000000 -37.500000
v 37.500000 0.000000 -37.500000
v 50.000000 0.000000 -37.500000
v -50.000000 0.000000 -50.000000
v -37.500000 0.000000 -50.000000
v -25.000000 0.000000 -50.000000
v -12.500000 0.000000 -50.000000
v 0.000000 0.000000 -50.000000
v 12.500000 0.000000 -50.000000
v 25.000000 0.000000 -50.000000
v 37.500000 0.000000 -50.000000
v 50.000000 0.000000 -50.000000
vt 1.000000 0.000000
vt 0.875000 0.125000
vt 1.000000 0.125000
vt 0.750000 0.250000
vt 0.875000 0.250000
vt 1.000000 0.250000
vt 0.625000 0.375000
vt 0.750000 0.375000
vt 0.875000 0.375000
vt 1.000000 0.375000
vt 0.500000 0.500000
vt 0.625000 0.500000
vt 0.750000 0.500000
vt 0.875000 0.500000
vt 1.000000 0.500000
vt 0.375000 0.625000
vt 0.500000 0.625000
vt 0.625000 0.625000
vt 0.750000 0.625000
vt 0.875000 0.625000
vt 1.000000 0.625000
vt 0.250000 0.750000
vt 0.375000 0.750000
vt 0.500000 0.750000
vt 0.625000 0.750000
vt 0.750000 0.750000
vt 0.875000 0.750000
vt 1.000000 0.750000
vt 0.125000 0.875000
vt 0.250000 0.875000
vt 0.375000 0.875000
vt 0.500000 0.875000
vt 0.625000 0.875000
vt 0.750000 0.875000
vt 0.875000 0.875000
vt 1.000000 0.875000
vt 0.000000 1.000000
vt 0.125000 1.000000
vt 0.250000 1.000000
vt 0.375000 1.000000
vt 0.500000 1.000000
vt 0.625000 1.000000
vt 0.750000 1.000000
vt 0.875000 1.000000
vt 1.000000 1.000000
vn 0.000000 1.000000 0.000000
vn 0.000000 1.000000 0.000000
vn 0.000000 1.000000 0.000000
vn 0.000000 1.000000 0.000000
vn 0.000000 1.000000 0.000000
vn 0.000000 1.000000 0.000000
vn 0.000000 1.000000 0.000000
vn 0.000000 1.000000 0.000000
vn 0.000000 1.000000 0.000000
vn 0.000000 1.000000 0.000000
vn 0.000000 1.000000 0.000000
vn 0.000000 1.000000 0.000000
vn 0.000000 1.000000 0.000000
vn 0.000000 1.000000 0.000000
vn 0.000000 1.000000 0.000000
vn 0.000000 1.000000 0.000000
vn 0.000000 1.000000 0.000000
vn 0.000000 1.000000 0.000000
vn 0.000000 1.000000 0.000000
vn 0.000000 1.000000 0.000000
vn 0.000000 1.000000 0.000000
vn 0.000000 1.000000 0.000000
vn 0.000000 1.000000 0.000000
vn 0.000000 1.000000 0.000000
vn 0.000000 1.000000 0.000000
vn 0.000000 1.000000 0.000000
vn 0.000000 1.000000 0.000000
vn 0.000000 1.000000 0.000000
vn 0.000000 1.000000 0.000000
vn 0.000000 1.000000 0.000000
vn 0.000000 1.000000 0.000000
vn 0.000000 1.000000 0.000000
vn 0.000000 1.000000 0.000000
vn 0.000000 1.000000 0.000000
vn 0.000000 1.000000 0.000000
vn 0.000000 1.000000 0.000000
vn 0.000000 1.000000 0.000000
vn 0.000000 1.000000 0.000000
vn 0.000000 1.000000 0.000000
vn 0.000000 1.000000 0.000000
vn 0.000000 1.000000 0.000000
vn 0.000000 1.000000 0.000000
vn 0.000000 1.000000 0.000000
vn 0.000000 1.000000 0.000000
vn 0.000000 1.000000 0.000000
s 1
g ENV_GEO Triangle_GEO_Sub
usemtl initialShadingGroup
f 87/87/86 86/86/87 88/88/88
f 89/89/89 87/87/86 90/90/90
f 87/87/86 88/88/88 90/90/90
f 90/90/90 88/88/88 91/91/91
f 92/92/92 89/89/89 93/93/93
f 89/89/89 90/90/90 93/93/93
f 93/93/93 90/90/90 94/94/94
f 90/90/90 91/91/91 94/94/94
f 94/94/94 91/91/91 95/95/95
f 96/96/96 92/92/92 97/97/97
f 92/92/92 93/93/93 97/97/97
f 97/97/97 93/93/93 98/98/98
f 93/93/93 94/94/94 98/98/98
f 98/98/98 94/94/94 99/99/99
f 94/94/94 95/95/95 99/99/99
f 99/99/99 95/95/95 100/100/100
f 101/101/101 96/96/96 102/102/102
f 96/96/96 97/97/97 102/102/102
f 102/102/102 97/97/97 103/103/103
f 97/97/97 98/98/98 103/103/103
f 103/103/103 98/98/98 104/104/104
f 98/98/98 99/99/99 104/104/104
f 104/104/104 99/99/99 105/105/105
f 99/99/99 100/100/100 105/105/105
f 105/105/105 100/100/100 106/106/106
f 107/107/107 101/101/101 108/108/108
f 101/101/101 102/102/102 108/108/108
f 108/108/108 102/102/102 109/109/109
f 102/102/102 103/103/103 109/109/109
f 109/109/109 103/103/103 110/110/110
f 103/103/103 104/104/104 110/110/110
f 110/110/110 104/104/104 111/111/111
f 104/104/104 105/105/105 111/111/111
f 111/111/111 105/105/105 112/112/112
f 105/105/105 106/106/106 112/112/112
f 112/112/112 106/106/106 113/113/113
f 114/114/114 107/107/107 115/115/115
f 107/107/107 108/108/108 115/115/115
f 115/115/115 108/108/108 116/116/116
f 108/108/108 109/109/109 116/116/116
f 116/116/116 109/109/109 117/117/117
f 109/109/109 110/110/110 117/117/117
f 117/117/117 110/110/110 118/118/118
f 110/110/110 111/111/111 118/118/118
f 118/118/118 111/111/111 119/119/119
f 111/111/111 112/112/112 119/119/119
f 119/119/119 112/112/112 120/120/120
f 112/112/112 113/113/113 120/120/120
f 120/120/120 113/113/113 121/121/121
f 122/122/122 114/114/114 123/123/123
f 114/114/114 115/115/115 123/123/123
f 123/123/123 115/115/115 124/124/124
f 115/115/115 116/116/116 124/124/124
f 124/124/124 116/116/116 125/125/125
f 116/116/116 117/117/117 125/125/125
f 125/125/125 117/117/117 126/126/126
f 117/117/117 118/118/118 126/126/126
f 126/126/126 118/118/118 127/127/127
f 118/118/118 119/119/119 127/127/127
f 127/127/127 119/119/119 128/128/128
f 119/119/119 120/120/120 128/128/128
f 128/128/128 120/120/120 129/129/129
f 120/120/120 121/121/121 129/129/129
f 129/129/129 121/121/121 130/130/130
g default
v 50.000000 0.000000 50.000000
v -50.000000 0.000000 -50.000000
v 50.000000 0.000000 -50.000000
vt 0.996094 0.003906
vt 0.003906 0.996094
vt 0.996094 0.996094
vn 0.000000 1.000000 0.000000
vn 0.000000 1.000000 0.000000
vn 0.000000 1.000000 0.000000
s off
g ENV_GEO Triangle_GEO_NoSub
usemtl initialShadingGroup
f 132/132/131 131/131/132 133/133/133
